<?xml version="1.0" encoding="utf-8"?>
<!-- Generator: Adobe Illustrator 24.0.0, SVG Export Plug-In . SVG Version: 6.00 Build 0)  -->
<svg version="1.1" id="Layer_1" xmlns="http://www.w3.org/2000/svg" xmlns:xlink="http://www.w3.org/1999/xlink" x="0px" y="0px"
	 viewBox="0 0 500 500" style="enable-background:new 0 0 500 500;" xml:space="preserve">
<style type="text/css">
	.st0{fill:none;stroke:#FFAEE6;stroke-width:5.0108;stroke-linecap:round;stroke-linejoin:round;stroke-miterlimit:10;}
	.st1{fill:none;stroke:#9FB6FF;stroke-width:6;stroke-linecap:round;stroke-linejoin:round;stroke-miterlimit:10;}
	.st2{fill:#FF5050;}
	.st3{font-family:'CooperBlack';}
	.st4{font-size:33.9903px;}
</style>
<g>
	<path class="st0" d="M248.79,178.17c-32.09-32.09-84.12-32.09-116.22,0c-32.09,32.09-32.09,84.13,0,116.22l116.22,116.22
		L365,294.39c32.09-32.09,32.09-84.12,0-116.22C332.91,146.08,280.88,146.08,248.79,178.17z"/>
	<polygon class="st1" points="184.74,244.31 141.39,302.64 248.59,410.23 356.18,303.43 313.22,244.31 	"/>
	<line class="st1" x1="141.39" y1="302.64" x2="356.18" y2="303.43"/>
	<polyline class="st1" points="184.55,244.31 191.11,301.58 248.59,244.31 306.72,301.58 313.03,244.31 	"/>
	<polygon class="st1" points="248.26,410.23 190.98,303.43 306.59,303.43 	"/>
</g>
<text transform="matrix(1 0 0 1 167.6028 225.819)" class="st2 st3 st4">LOVELYZ</text>
</svg>
